<svg xmlns="http://www.w3.org/2000/svg" width="512" height="512" viewBox="0 0 512 512" version="1.1"><path d="M 250.174 2.314 C 248.135 4.485, 248 5.591, 248 20.140 C 248 35.061, 248.088 35.734, 250.314 37.826 C 253.486 40.805, 258.957 40.739, 261.826 37.686 C 263.865 35.515, 264 34.409, 264 19.860 C 264 4.939, 263.912 4.266, 261.686 2.174 C 258.514 -0.805, 253.043 -0.739, 250.174 2.314 M 237.500 56.626 C 184.329 64.618, 140.805 98.502, 122.060 146.500 C 114.012 167.105, 111.507 182.206, 112.298 205.335 C 113.097 228.682, 117.350 245.568, 127.425 265.397 C 137.673 285.566, 151.933 302.306, 171.060 316.619 C 186.405 328.102, 189.296 332.300, 194.509 350.671 L 197.679 361.841 193.493 364.792 C 190.829 366.670, 188.343 369.678, 186.654 373.067 L 184 378.393 184 404.230 C 184 429.668, 184.038 430.141, 186.451 434.903 C 189.255 440.436, 193.412 444.296, 198.578 446.164 C 201.776 447.321, 202.793 448.707, 208.149 459.211 C 212.415 467.579, 215.324 471.978, 218.250 474.482 C 220.511 476.417, 222.729 478, 223.180 478 C 223.631 478, 224 481.210, 224 485.134 C 224 489.058, 224.514 493.982, 225.141 496.078 C 226.796 501.600, 231.617 506.913, 237.429 509.619 C 241.976 511.736, 243.895 511.979, 256 511.968 C 267.434 511.958, 270.189 511.644, 274 509.916 C 283.668 505.533, 287.975 498.094, 287.990 485.750 C 287.996 481.488, 288.369 478, 288.820 478 C 289.271 478, 291.489 476.417, 293.750 474.482 C 296.676 471.978, 299.585 467.579, 303.851 459.211 C 309.207 448.707, 310.224 447.321, 313.422 446.164 C 318.752 444.237, 323.002 440.192, 325.633 434.541 C 327.903 429.666, 327.980 428.659, 327.980 404 C 327.980 379.100, 327.923 378.377, 325.552 373.285 C 323.959 369.863, 321.740 367.112, 319.100 365.285 C 316.887 363.753, 315.062 361.825, 315.044 361 C 314.995 358.620, 320.938 338.020, 322.604 334.799 C 325.149 329.877, 331.064 324.018, 340.981 316.596 C 363.781 299.533, 380.277 278.282, 389.928 253.542 C 398.024 232.790, 400.497 217.798, 399.732 194.117 C 399.138 175.762, 396.437 162.446, 390.071 146.489 C 372.271 101.877, 333.793 69.608, 285 58.373 C 278.629 56.906, 244.090 55.636, 237.500 56.626 M 246 72.659 C 201.057 76.639, 161.740 103.420, 141.577 143.789 C 132.843 161.273, 128.830 179.128, 128.829 200.500 C 128.827 221.957, 132.821 238.714, 142.534 258 C 151.433 275.671, 166.329 292.849, 182.700 304.321 C 198.510 315.400, 205.183 325.584, 211.156 347.750 L 214.457 360 223.556 360 L 232.655 360 239.440 312.445 C 243.171 286.290, 246.061 264.764, 245.862 264.609 C 245.663 264.453, 240.694 263.562, 234.819 262.627 C 190.919 255.643, 164.638 227.587, 160.020 182.775 C 158.735 170.300, 159.393 164.919, 162.570 161.934 C 164.836 159.806, 165.487 159.735, 177.719 160.279 C 211.122 161.765, 237.064 176.131, 251.760 201.282 L 256.307 209.064 259.904 202.506 C 274.560 175.780, 303.973 160, 339.131 160 C 352.160 160, 353.753 162.161, 352.683 178.384 C 351.126 202.006, 343.185 222.175, 329.796 236.511 C 315.760 251.541, 298.814 259.755, 275 263.073 C 270.325 263.724, 266.337 264.400, 266.138 264.574 C 265.939 264.748, 268.829 286.290, 272.560 312.445 L 279.345 360 288.464 360 L 297.583 360 301.023 347.250 C 307.106 324.706, 312.140 317.042, 328.972 304.704 C 352.170 287.700, 368.714 265.356, 377.094 239.713 C 385.644 213.548, 385.368 182.842, 376.358 157.766 C 360.762 114.365, 323.525 82.602, 278.874 74.613 C 269.854 72.999, 253.285 72.014, 246 72.659 M 82.174 82.314 C 80.809 83.768, 80 85.913, 80 88.079 C 80 91.161, 81.312 92.839, 92.264 103.765 C 103.351 114.825, 104.871 116, 108.090 116 C 112.731 116, 116 112.661, 116 107.921 C 116 104.839, 114.688 103.161, 103.736 92.235 C 92.649 81.175, 91.129 80, 87.910 80 C 85.480 80, 83.658 80.735, 82.174 82.314 M 408.235 92.264 C 397.175 103.351, 396 104.871, 396 108.090 C 396 112.731, 399.339 116, 404.079 116 C 407.161 116, 408.839 114.688, 419.765 103.736 C 430.825 92.649, 432 91.129, 432 87.910 C 432 83.269, 428.661 80, 423.921 80 C 420.839 80, 419.161 81.312, 408.235 92.264 M 266 88.708 C 262.649 89.928, 260 93.397, 260 96.564 C 260 102.185, 262.461 103.943, 273.388 106.128 C 278.800 107.209, 285.539 108.973, 288.364 110.047 C 297.013 113.334, 301.792 112.308, 303.922 106.706 C 305.423 102.758, 303.543 98.486, 299.451 96.544 C 289.775 91.952, 269.887 87.294, 266 88.708 M 316.336 114.573 C 314.188 116.721, 313.861 117.755, 314.359 120.823 C 315.228 126.179, 325.960 135.894, 331.076 135.956 C 335.762 136.014, 339 132.699, 339 127.844 C 339 124.815, 338.095 123.448, 332.587 118.159 C 327.133 112.921, 325.630 112, 322.541 112 C 319.973 112, 318.156 112.754, 316.336 114.573 M 176.700 181.750 C 178.867 204.408, 191.172 226.094, 207.411 235.877 C 217.061 241.690, 234.749 247, 244.465 247 L 247.754 247 247.300 242.250 C 245.133 219.592, 232.828 197.906, 216.589 188.123 C 206.939 182.310, 189.251 177, 179.535 177 L 176.246 177 176.700 181.750 M 320.624 178.638 C 290.890 185.014, 272.762 203.230, 266.493 233.035 C 265.672 236.937, 265 241.676, 265 243.565 C 265 246.776, 265.212 246.999, 268.250 246.987 C 274.651 246.961, 289.762 243.170, 297.064 239.758 C 310.931 233.278, 321.091 223.648, 327.590 210.822 C 330.703 204.678, 334.581 191.132, 335.482 183.250 L 336.196 177 331.848 177.082 C 329.457 177.126, 324.406 177.827, 320.624 178.638 M 186.174 186.314 C 184.810 187.766, 184 189.913, 184 192.075 C 184 195.210, 185.642 197.160, 202.260 213.760 C 219.107 230.589, 220.796 232, 224.086 232 C 228.729 232, 232 228.663, 232 223.925 C 232 220.790, 230.358 218.840, 213.740 202.240 C 196.893 185.411, 195.204 184, 191.914 184 C 189.480 184, 187.659 184.734, 186.174 186.314 M 298.240 202.260 C 281.411 219.107, 280 220.796, 280 224.086 C 280 228.729, 283.337 232, 288.075 232 C 291.210 232, 293.160 230.358, 309.760 213.740 C 326.589 196.893, 328 195.204, 328 191.914 C 328 187.271, 324.663 184, 319.925 184 C 316.790 184, 314.840 185.642, 298.240 202.260 M 50.174 202.314 C 47.195 205.486, 47.261 210.957, 50.314 213.826 C 52.485 215.865, 53.591 216, 68.140 216 C 83.061 216, 83.734 215.912, 85.826 213.686 C 88.805 210.514, 88.739 205.043, 85.686 202.174 C 83.515 200.135, 82.409 200, 67.860 200 C 52.939 200, 52.266 200.088, 50.174 202.314 M 426.174 202.314 C 423.195 205.486, 423.261 210.957, 426.314 213.826 C 428.485 215.865, 429.591 216, 444.140 216 C 459.061 216, 459.734 215.912, 461.826 213.686 C 464.805 210.514, 464.739 205.043, 461.686 202.174 C 459.515 200.135, 458.409 200, 443.860 200 C 428.939 200, 428.266 200.088, 426.174 202.314 M 88.235 284.264 C 77.175 295.351, 76 296.871, 76 300.090 C 76 304.731, 79.339 308, 84.079 308 C 87.161 308, 88.839 306.688, 99.765 295.736 C 110.825 284.649, 112 283.129, 112 279.910 C 112 275.269, 108.661 272, 103.921 272 C 100.839 272, 99.161 273.312, 88.235 284.264 M 402.174 274.314 C 400.809 275.768, 400 277.913, 400 280.079 C 400 283.161, 401.312 284.839, 412.264 295.765 C 423.351 306.825, 424.871 308, 428.090 308 C 432.731 308, 436 304.661, 436 299.921 C 436 296.839, 434.688 295.161, 423.736 284.235 C 412.649 273.175, 411.129 272, 407.910 272 C 405.480 272, 403.658 272.735, 402.174 274.314 M 252.686 338.750 C 251.179 349.613, 249.958 358.837, 249.973 359.250 C 249.988 359.663, 252.700 360, 256 360 C 259.300 360, 262.012 359.663, 262.027 359.250 C 262.117 356.728, 256.468 319, 256 319 C 255.685 319, 254.194 327.887, 252.686 338.750 M 205.020 377.284 C 203.656 377.975, 201.982 379.656, 201.301 381.020 L 200.063 383.500 213.749 383.780 C 226.152 384.033, 227.648 384.260, 229.717 386.204 C 232.846 389.144, 232.831 394.871, 229.686 397.826 C 227.542 399.839, 226.361 400, 213.686 400 L 200 400 200 404 L 200 408 237.826 408 L 275.651 408 277.826 410.314 C 280.799 413.480, 280.739 418.957, 277.699 421.813 C 275.435 423.940, 274.784 423.980, 237.731 424.238 L 200.066 424.500 201.303 426.980 C 203.774 431.936, 204.152 431.971, 256 431.971 C 307.847 431.971, 308.221 431.936, 310.702 426.980 L 311.944 424.500 306.225 424.193 C 299.052 423.807, 296 421.362, 296 416 C 296 410.456, 299.167 408, 306.314 408 L 312 408 312 404 L 312 400 282.174 400 L 252.349 400 250.174 397.686 C 247.202 394.522, 247.261 389.043, 250.298 386.190 C 252.532 384.091, 253.428 384.023, 282.266 383.765 L 311.935 383.500 310.698 381.020 C 308.226 376.064, 307.848 376.029, 256 376.029 C 219.082 376.029, 206.908 376.329, 205.020 377.284 M 222.028 448.750 C 222.117 451.115, 228.891 461.662, 231 462.718 C 232.781 463.610, 239.975 463.971, 256 463.971 C 272.025 463.971, 279.219 463.610, 281 462.718 C 283.109 461.662, 289.883 451.115, 289.972 448.750 C 289.987 448.337, 274.700 448, 256 448 C 237.300 448, 222.013 448.337, 222.028 448.750 M 240.213 485.559 C 240.951 494.458, 242.606 495.500, 256 495.500 C 269.394 495.500, 271.049 494.458, 271.787 485.559 L 272.248 480 256 480 L 239.752 480 240.213 485.559" stroke="none" fill="#258a04" fill-rule="evenodd"/></svg>