<?xml version="1.0" encoding="utf-8"?>
<!-- Generator: Adobe Illustrator 26.0.0, SVG Export Plug-In . SVG Version: 6.00 Build 0)  -->
<svg version="1.1" id="Layer_1" xmlns="http://www.w3.org/2000/svg" xmlns:xlink="http://www.w3.org/1999/xlink" x="0px" y="0px"
	 viewBox="0 0 1296 1728" style="enable-background:new 0 0 1296 1728;" xml:space="preserve">
<style type="text/css">
	.st0{fill-rule:evenodd;clip-rule:evenodd;fill:#050505;}
</style>
<path id="Avatar_-_1" class="st0" d="M601.87,295.38c-103.82,12.48-194.32,76.52-240.64,170.27
	c-21.78,42.4-32.79,89.52-32.04,137.19c-0.73,47.67,10.28,94.78,32.06,137.19c36.48,74.2,101.26,130.61,179.77,156.56
	c28.72,9.9,58.88,15.03,89.26,15.17c27.68,1.33,55.41-1.55,82.23-8.54c30.15-7.74,59.06-19.69,85.87-35.51l4.55-2.57l13.15,5.43
	c142.26,58.95,246.15,184.45,277.49,335.22c2.93,14.25,6.91,40.73,7.48,49.78l0.35,5.53l-462.46,0.29
	c-254.32,0.16-462.74-0.09-463.16-0.55c0.42-14.6,2.16-29.14,5.18-43.43c11.13-61.34,34.43-119.83,68.51-172.03
	c19.11-29.31,41.6-56.27,67.02-80.31c28.33-27.97,29.14-29.2,29.14-44.73c0.6-5.59-0.41-11.23-2.9-16.27
	c-9-19.37-32-27.78-51.37-18.78c-0.5,0.23-0.99,0.47-1.48,0.73c-25.29,19.88-48.25,42.55-68.45,67.58
	c-77.9,94.18-121.74,211.88-124.45,334.06c-0.16,21.02-0.16,21.03,3.06,27.99c4.37,9.05,11.9,16.19,21.17,20.07l6.13,2.3h1022.08
	l6.07-2.26c9-3.72,16.36-10.57,20.73-19.27c1.48-2.86,2.55-5.93,3.17-9.09c-0.09-1.17,0.31-2.32,1.11-3.17
	c1.07-4.39,1.44-8.91,1.11-13.41c0.36-4.07,0.05-8.18-0.93-12.15c-1.2-4.61-1.73-9.38-1.58-14.14
	c-12.35-193.23-127.13-365.08-300.9-450.49c-3.09-1.27-5.98-3-8.57-5.12c1.76-2.9,3.81-5.61,6.11-8.09
	c37.78-45.25,61.99-100.26,69.84-158.68c2.39-24.83,2.58-49.82,0.55-74.67c-4.14-35.05-14.32-69.11-30.09-100.68
	c-46.36-94.88-137.94-159.55-242.87-171.49c-23.71-2.06-47.56-2.03-71.27,0.1 M620.7,371.13c-35.6,2.92-70.08,13.86-100.85,32.01
	c-38.92,23.17-70.23,57.2-90.08,97.91c-26.72,54.25-31.01,116.83-11.96,174.21c39.87,121.87,170.98,188.34,292.84,148.47
	c121.87-39.87,188.34-170.98,148.47-292.84c-3.34-10.22-7.39-20.19-12.11-29.84c-11.16-23.32-26.34-44.49-44.85-62.54
	c-39.59-39.85-92.4-63.84-148.46-67.44c-8.73-0.6-16.85-1.03-18.07-0.93l-14.95,1.01 M96.69,1292.09c0,7.3,0.17,10.15,0.4,6.34
	c0.22-3.82,0.22-9.8,0-13.27c-0.22-3.47-0.4-0.35-0.4,6.95"/>
</svg>
